<?xml version="1.0" encoding="UTF-8"?>
<!DOCTYPE svg PUBLIC "-//W3C//DTD SVG 1.1//EN" "http://www.w3.org/Graphics/SVG/1.1/DTD/svg11.dtd">
<!-- Creator: CorelDRAW 2019 (64-Bit) -->
<svg xmlns="http://www.w3.org/2000/svg" xml:space="preserve" width="8.5in" height="11in" version="1.1" style="shape-rendering:geometricPrecision; text-rendering:geometricPrecision; image-rendering:optimizeQuality; fill-rule:evenodd; clip-rule:evenodd"
viewBox="0 0 8500 11000"
 xmlns:xlink="http://www.w3.org/1999/xlink">
 <defs>
  <style type="text/css">
   <![CDATA[
    .str0 {stroke:#96989A;stroke-width:6.94;stroke-miterlimit:2.61313}
    .fil5 {fill:#FEFEFE}
    .fil4 {fill:#D2D3D5}
    .fil6 {fill:#96989A}
    .fil2 {fill:#F74343}
    .fil1 {fill:#FF6600}
    .fil0 {fill:#96989A;fill-rule:nonzero}
    .fil7 {fill:#989C9C;fill-rule:nonzero}
    .fil3 {fill:#ED1515}
   ]]>
  </style>
 </defs>
 <g id="Layer_x0020_1">
  <metadata id="CorelCorpID_0Corel-Layer"/>
  <g id="_2061093947584">
   <path class="fil0 str0" d="M3801.15 5503.24c-4.27,0 -7.89,-1.44 -10.93,-4.37 -2.98,-2.88 -4.47,-6.56 -4.47,-11.02 0,-4.47 1.49,-8.2 4.47,-11.13 3.03,-2.98 6.65,-4.47 10.93,-4.47 4.37,0 8.09,1.49 11.12,4.47 3.08,2.93 4.62,6.65 4.62,11.13 0,4.27 -1.54,7.89 -4.62,10.87 -3.03,3.03 -6.75,4.52 -11.12,4.52zm11.67 145.19c0,13.66 5.26,20.51 15.84,20.51 4.27,0 8.09,-0.55 11.47,-1.59l0 21.55c-1.84,0.44 -4.27,0.94 -7.35,1.34 -3.03,0.45 -6.26,0.7 -9.63,0.7 -4.76,0 -9.24,-0.8 -13.41,-2.33 -4.17,-1.59 -7.8,-3.92 -10.83,-7.15 -3.08,-3.18 -5.51,-7.2 -7.3,-12.02 -1.79,-4.77 -2.68,-10.38 -2.68,-16.78l0 -111.58 23.89 0 0 107.36zm176.93 41.61l-23.88 0 0 -84.96c0,-31.63 -11.52,-47.42 -34.61,-47.42 -11.92,0 -21.8,4.47 -29.59,13.46 -7.85,8.99 -11.72,20.31 -11.72,33.96l0 84.96 -23.89 0 0 -148.97 23.89 0 0 24.73 0.59 0c11.22,-18.82 27.51,-28.2 48.86,-28.2 16.29,0 28.75,5.26 37.39,15.79 8.64,10.48 12.96,25.72 12.96,45.59l0 91.07zm114.06 -1.44c-5.61,3.08 -13.06,4.62 -22.25,4.62 -26.12,0 -39.13,-14.55 -39.13,-43.65l0 -88.14 -25.62 0 0 -20.36 25.62 0 0 -36.35 23.84 -7.75 0 44.09 37.54 0 0 20.36 -37.54 0 0 83.97c0,9.98 1.69,17.08 5.11,21.35 3.37,4.27 8.99,6.41 16.88,6.41 6.01,0 11.17,-1.64 15.54,-4.97l0 20.41zm149.22 -67.09l-105.17 0c0.4,16.59 4.87,29.4 13.41,38.44 8.54,8.99 20.26,13.5 35.2,13.5 16.78,0 32.18,-5.51 46.28,-16.58l0 22.39c-13.11,9.54 -30.44,14.25 -51.94,14.25 -21.05,0 -37.59,-6.75 -49.61,-20.26 -12.07,-13.56 -18.07,-32.57 -18.07,-57.11 0,-23.19 6.61,-42.06 19.72,-56.66 13.16,-14.6 29.5,-21.9 48.96,-21.9 19.52,0 34.56,6.3 45.24,18.92 10.68,12.56 15.99,30.09 15.99,52.49l0 12.51zm-24.43 -20.21c-0.1,-13.76 -3.43,-24.48 -9.93,-32.18 -6.56,-7.65 -15.64,-11.47 -27.31,-11.47 -11.22,0 -20.81,4.02 -28.65,12.07 -7.85,8.04 -12.71,18.57 -14.55,31.58l80.44 0zm138.24 -36.1c-4.17,-3.18 -10.18,-4.76 -18.03,-4.76 -10.23,0 -18.72,4.76 -25.57,14.4 -6.8,9.59 -10.23,22.69 -10.23,39.28l0 75.93 -23.89 0 0 -148.97 23.89 0 0 30.69 0.59 0c3.38,-10.48 8.54,-18.62 15.54,-24.53 7,-5.86 14.8,-8.79 23.44,-8.79 6.21,0 10.93,0.7 14.25,2.04l0 24.73zm123.5 117.98c-11.42,6.91 -25.03,10.33 -40.72,10.33 -21.26,0 -38.39,-6.9 -51.44,-20.71 -13.01,-13.8 -19.57,-31.73 -19.57,-53.78 0,-24.53 7.05,-44.24 21.11,-59.14 14.05,-14.85 32.82,-22.3 56.31,-22.3 13.11,0 24.63,2.38 34.61,7.25l0 24.43c-11.07,-7.75 -22.89,-11.62 -35.5,-11.62 -15.2,0 -27.71,5.46 -37.44,16.39 -9.74,10.88 -14.65,25.23 -14.65,42.96 0,17.48 4.62,31.23 13.75,41.31 9.19,10.08 21.45,15.15 36.9,15.15 13.01,0 25.22,-4.32 36.65,-12.96l0 22.69zm113.76 -117.98c-4.17,-3.18 -10.18,-4.76 -18.03,-4.76 -10.23,0 -18.72,4.76 -25.57,14.4 -6.8,9.59 -10.23,22.69 -10.23,39.28l0 75.93 -23.89 0 0 -148.97 23.89 0 0 30.69 0.59 0c3.38,-10.48 8.54,-18.62 15.54,-24.53 7,-5.86 14.8,-8.79 23.44,-8.79 6.21,0 10.93,0.7 14.25,2.04l0 24.73zm132.53 124.84l-23.89 0 0 -23.29 -0.54 0c-10.38,17.87 -25.67,26.76 -45.83,26.76 -14.85,0 -26.47,-3.93 -34.86,-11.77 -8.39,-7.85 -12.56,-18.28 -12.56,-31.28 0,-27.81 16.39,-44.05 49.16,-48.57l44.64 -6.26c0,-25.33 -10.23,-37.99 -30.69,-37.99 -17.93,0 -34.11,6.11 -48.57,18.32l0 -24.43c14.65,-9.33 31.48,-13.95 50.6,-13.95 35.01,0 52.54,18.52 52.54,55.56l0 96.88zm-23.89 -75.38l-35.9 4.96c-11.07,1.54 -19.41,4.27 -25.03,8.24 -5.61,3.92 -8.44,10.87 -8.44,20.85 0,7.25 2.58,13.21 7.8,17.83 5.16,4.62 12.06,6.9 20.7,6.9 11.82,0 21.6,-4.17 29.3,-12.41 7.74,-8.29 11.57,-18.82 11.57,-31.53l0 -14.85zm142.47 -124.24c-4.67,-2.58 -9.93,-3.92 -15.89,-3.92 -16.64,0 -24.98,10.53 -24.98,31.58l0 22.99 34.91 0 0 20.36 -34.91 0 0 128.61 -23.74 0 0 -128.61 -25.47 0 0 -20.36 25.47 0 0 -24.13c0,-15.64 4.52,-27.96 13.51,-37.05 9.04,-9.09 20.31,-13.6 33.77,-13.6 7.3,0 13.06,0.89 17.33,2.63l0 21.5zm94.1 198.18c-5.61,3.08 -13.06,4.62 -22.25,4.62 -26.12,0 -39.13,-14.55 -39.13,-43.65l0 -88.14 -25.62 0 0 -20.36 25.62 0 0 -36.35 23.84 -7.75 0 44.09 37.54 0 0 20.36 -37.54 0 0 83.97c0,9.98 1.69,17.08 5.11,21.35 3.37,4.27 8.99,6.41 16.88,6.41 6.01,0 11.17,-1.64 15.54,-4.97l0 20.41z"/>
   <path class="fil1" d="M3571.09 5223.42l102.58 252.15 73.11 -180.02c0,0 -175.97,-71.45 -175.69,-72.13z"/>
   <path class="fil2" d="M3675.19 5476.97l-124.51 -212 43.87 16.52c0,0 79.37,194.96 80.64,195.48z"/>
   <path class="fil3" d="M3746.78 5295.56l-131.35 319.99 231.26 -131.5c0,0 -99.38,-189.76 -99.9,-188.49z"/>
   <path class="fil2" d="M3868.2 5431.48l-44.19 9.44 22.66 43.13c0,0 21.36,-52.16 21.52,-52.57z"/>
   <path class="fil1" d="M3868.2 5431.49l25.87 44.76 -38.31 -14.5c0,0 12.61,-30.67 12.44,-30.26z"/>
   <path class="fil4" d="M3673.73 5473.43l1.61 145.56 -78.1 41.37c0,0 75.85,-187.67 76.49,-186.93z"/>
   <path class="fil5" d="M3801.71 5489.39c11.18,0 20.24,9.06 20.24,20.24 0,11.18 -9.06,20.24 -20.24,20.24 -11.18,0 -20.24,-9.06 -20.24,-20.24 0,-11.18 9.06,-20.24 20.24,-20.24z"/>
   <path class="fil6" d="M3801.71 5495.41c7.86,0 14.23,6.37 14.23,14.23 0,7.86 -6.37,14.23 -14.23,14.23 -7.86,0 -14.23,-6.37 -14.23,-14.23 0,-7.86 6.37,-14.23 14.23,-14.23z"/>
   <path class="fil1" d="M3571.09 5223.42l102.58 252.15 73.11 -180.02c0,0 -175.97,-71.45 -175.69,-72.13z"/>
   <path class="fil2" d="M3675.19 5476.97l-124.51 -212 43.87 16.52c0,0 79.37,194.96 80.64,195.48z"/>
   <path class="fil3" d="M3746.78 5295.56l-131.35 319.99 231.26 -131.5c0,0 -99.38,-189.76 -99.9,-188.49z"/>
   <path class="fil2" d="M3868.2 5431.48l-44.19 9.44 22.66 43.13c0,0 21.36,-52.16 21.52,-52.57z"/>
   <path class="fil1" d="M3868.2 5431.49l25.87 44.76 -38.31 -14.5c0,0 12.61,-30.67 12.44,-30.26z"/>
   <path class="fil4" d="M3673.73 5473.43l1.61 145.56 -78.1 41.37c0,0 75.85,-187.67 76.49,-186.93z"/>
   <path class="fil5" d="M3801.71 5489.39c11.18,0 20.24,9.06 20.24,20.24 0,11.18 -9.06,20.24 -20.24,20.24 -11.18,0 -20.24,-9.06 -20.24,-20.24 0,-11.18 9.06,-20.24 20.24,-20.24z"/>
   <path class="fil6" d="M3801.71 5495.41c7.86,0 14.23,6.37 14.23,14.23 0,7.86 -6.37,14.23 -14.23,14.23 -7.86,0 -14.23,-6.37 -14.23,-14.23 0,-7.86 6.37,-14.23 14.23,-14.23z"/>
   <path class="fil7" d="M4232.7 5744.74c1.46,0 2.58,0.56 3.35,1.66 0.77,1.07 1.16,2.64 1.16,4.7l0 11.77c0,2.18 0.54,3.83 1.6,4.98 0.93,1.03 2.12,1.54 3.6,1.54l4.16 0c0.73,0 1.1,-0.52 1.1,-1.56 0,-1.04 -0.41,-1.56 -1.22,-1.56l-2.7 0c-1.22,0 -2.05,-0.33 -2.49,-0.99 -0.41,-0.59 -0.6,-1.58 -0.6,-2.99l0 -12.08c0,-1.99 -0.56,-3.55 -1.66,-4.69 -0.91,-0.99 -2.26,-1.7 -4.03,-2.15l0 -0.11c1.73,-0.44 3.08,-1.18 4.03,-2.2 1.1,-1.22 1.66,-2.8 1.66,-4.75l0 -11.98c0,-1.4 0.2,-2.39 0.61,-2.98 0.47,-0.7 1.3,-1.04 2.48,-1.04l2.87 0c0.74,0 1.1,-0.52 1.1,-1.56 -0.04,-1.04 -0.43,-1.56 -1.16,-1.56l-4.16 0c-1.41,0 -2.6,0.6 -3.6,1.82 -1.06,1.29 -1.6,2.86 -1.6,4.74l0 11.64c0,2.06 -0.39,3.62 -1.16,4.69 -0.76,1.07 -1.89,1.6 -3.35,1.6l-2.26 0c-0.84,0 -1.26,0.5 -1.26,1.5 0,1.04 0.42,1.56 1.26,1.56l2.26 0zm712.98 0l2.26 0c0.8,0 1.2,-0.52 1.2,-1.56 0,-1 -0.41,-1.5 -1.2,-1.5l-2.26 0c-1.5,0 -2.64,-0.54 -3.4,-1.6 -0.74,-1.06 -1.1,-2.63 -1.1,-4.69l0 -11.64c0,-1.88 -0.54,-3.45 -1.6,-4.74 -1.04,-1.22 -2.24,-1.82 -3.6,-1.82l-4.16 0c-0.77,0 -1.18,0.52 -1.21,1.56 0,1.04 0.39,1.56 1.16,1.56l2.87 0c1.14,0 1.95,0.35 2.43,1.04 0.44,0.59 0.66,1.58 0.66,2.98l0 11.98c0,1.95 0.54,3.53 1.6,4.75 0.95,1.03 2.32,1.76 4.08,2.2l0 0.11c-1.8,0.44 -3.16,1.16 -4.08,2.15 -1.06,1.14 -1.6,2.7 -1.6,4.69l0 12.08c0,1.41 -0.22,2.39 -0.66,2.99 -0.44,0.66 -1.26,0.99 -2.43,0.99l-2.7 0c-0.85,0 -1.27,0.52 -1.27,1.56 0,1.04 0.39,1.56 1.16,1.56l4.16 0c1.44,0 2.64,-0.52 3.6,-1.54 1.06,-1.14 1.6,-2.8 1.6,-4.98l0 -11.77c0,-2.07 0.37,-3.64 1.1,-4.7 0.76,-1.1 1.9,-1.66 3.4,-1.66zm-687.94 17.23l0 -5.47c0.63,0.56 1.39,1.05 2.26,1.49 0.87,0.44 1.8,0.82 2.76,1.12 0.97,0.3 1.94,0.54 2.91,0.7 0.98,0.16 1.89,0.24 2.7,0.24 2.85,0 4.98,-0.53 6.4,-1.59 1.41,-1.06 2.11,-2.58 2.11,-4.56 0,-1.07 -0.24,-2 -0.71,-2.79 -0.47,-0.8 -1.12,-1.52 -1.94,-2.17 -0.83,-0.66 -1.81,-1.28 -2.94,-1.89 -1.14,-0.59 -2.35,-1.22 -3.67,-1.89 -1.38,-0.7 -2.67,-1.41 -3.87,-2.13 -1.2,-0.72 -2.23,-1.51 -3.12,-2.37 -0.89,-0.87 -1.57,-1.85 -2.08,-2.94 -0.51,-1.09 -0.76,-2.37 -0.76,-3.85 0,-1.81 0.39,-3.37 1.19,-4.71 0.8,-1.34 1.84,-2.43 3.12,-3.3 1.29,-0.87 2.76,-1.51 4.41,-1.93 1.64,-0.43 3.33,-0.64 5.04,-0.64 3.9,0 6.75,0.47 8.54,1.41l0 5.22c-2.34,-1.62 -5.35,-2.43 -9,-2.43 -1.02,0 -2.02,0.1 -3.04,0.31 -1.01,0.22 -1.91,0.56 -2.7,1.04 -0.79,0.48 -1.43,1.1 -1.93,1.86 -0.5,0.75 -0.74,1.67 -0.74,2.76 0,1.01 0.19,1.89 0.57,2.62 0.38,0.74 0.93,1.41 1.67,2.02 0.73,0.6 1.64,1.2 2.69,1.76 1.06,0.58 2.28,1.2 3.66,1.88 1.43,0.7 2.76,1.44 4.04,2.21 1.27,0.78 2.38,1.63 3.33,2.57 0.96,0.94 1.72,1.98 2.28,3.12 0.56,1.14 0.84,2.45 0.84,3.92 0,1.95 -0.38,3.61 -1.14,4.96 -0.76,1.36 -1.8,2.46 -3.09,3.3 -1.3,0.85 -2.8,1.46 -4.49,1.84 -1.7,0.38 -3.48,0.57 -5.36,0.57 -0.62,0 -1.39,-0.05 -2.32,-0.15 -0.91,-0.1 -1.86,-0.24 -2.82,-0.44 -0.95,-0.19 -1.85,-0.43 -2.71,-0.72 -0.86,-0.28 -1.55,-0.6 -2.07,-0.95zm33.31 -33.85c-0.81,0 -1.5,-0.28 -2.07,-0.83 -0.57,-0.55 -0.85,-1.24 -0.85,-2.09 0,-0.85 0.28,-1.56 0.85,-2.11 0.57,-0.56 1.26,-0.85 2.07,-0.85 0.83,0 1.54,0.28 2.11,0.85 0.58,0.56 0.88,1.26 0.88,2.11 0,0.81 -0.3,1.5 -0.88,2.06 -0.57,0.57 -1.28,0.86 -2.11,0.86zm2.21 27.56c0,2.59 1,3.89 3.01,3.89 0.81,0 1.54,-0.11 2.18,-0.3l0 4.09c-0.35,0.08 -0.81,0.18 -1.39,0.26 -0.57,0.08 -1.19,0.13 -1.83,0.13 -0.9,0 -1.75,-0.15 -2.54,-0.44 -0.79,-0.3 -1.48,-0.75 -2.06,-1.36 -0.58,-0.6 -1.05,-1.37 -1.39,-2.28 -0.34,-0.9 -0.51,-1.97 -0.51,-3.19l0 -21.18 4.53 0 0 20.38zm50.26 7.9l-4.52 0 0 -16.24c0,-3.13 -0.49,-5.39 -1.45,-6.79 -0.97,-1.4 -2.59,-2.1 -4.87,-2.1 -1.93,0 -3.58,0.89 -4.93,2.65 -1.35,1.77 -2.04,3.89 -2.04,6.35l0 16.13 -4.52 0 0 -16.79c0,-5.56 -2.15,-8.34 -6.44,-8.34 -1.99,0 -3.62,0.83 -4.91,2.5 -1.29,1.67 -1.93,3.83 -1.93,6.5l0 16.13 -4.54 0 0 -28.28 4.54 0 0 4.48 0.11 0c2,-3.43 4.93,-5.14 8.78,-5.14 1.93,0 3.62,0.54 5.05,1.61 1.44,1.07 2.42,2.49 2.96,4.24 2.09,-3.9 5.22,-5.85 9.39,-5.85 6.22,0 9.33,3.84 9.33,11.51l0 17.43zm13.2 -4.09l-0.11 0 0 17.1 -4.54 0 0 -41.28 4.54 0 0 4.97 0.11 0c2.22,-3.75 5.48,-5.63 9.77,-5.63 3.64,0 6.48,1.26 8.53,3.8 2.04,2.53 3.06,5.92 3.06,10.17 0,4.73 -1.15,8.52 -3.45,11.37 -2.3,2.84 -5.45,4.26 -9.44,4.26 -3.67,0 -6.48,-1.59 -8.47,-4.75zm-0.11 -11.41l0 3.95c0,2.34 0.76,4.33 2.28,5.96 1.52,1.63 3.44,2.44 5.78,2.44 2.74,0 4.89,-1.04 6.44,-3.15 1.56,-2.1 2.34,-5.02 2.34,-8.76 0,-3.15 -0.72,-5.61 -2.19,-7.4 -1.45,-1.78 -3.42,-2.67 -5.9,-2.67 -2.64,0 -4.75,0.91 -6.35,2.74 -1.6,1.84 -2.4,4.13 -2.4,6.89zm32.94 7.6c0,2.59 1,3.89 3.01,3.89 0.81,0 1.54,-0.11 2.18,-0.3l0 4.09c-0.35,0.08 -0.81,0.18 -1.39,0.26 -0.57,0.08 -1.19,0.13 -1.83,0.13 -0.9,0 -1.75,-0.15 -2.54,-0.44 -0.79,-0.3 -1.48,-0.75 -2.06,-1.36 -0.58,-0.6 -1.05,-1.37 -1.39,-2.28 -0.34,-0.9 -0.51,-1.97 -0.51,-3.19l0 -34.76 4.53 0 0 33.96zm32.83 -5.11l-19.96 0c0.07,3.15 0.93,5.58 2.54,7.3 1.62,1.71 3.85,2.56 6.69,2.56 3.19,0 6.11,-1.04 8.78,-3.15l0 4.25c-2.49,1.81 -5.78,2.7 -9.86,2.7 -4,0 -7.14,-1.28 -9.42,-3.85 -2.29,-2.57 -3.43,-6.19 -3.43,-10.84 0,-4.4 1.25,-7.98 3.74,-10.76 2.5,-2.77 5.6,-4.16 9.3,-4.16 3.7,0 6.56,1.2 8.59,3.59 2.02,2.38 3.03,5.71 3.03,9.96l0 2.37zm-4.63 -3.83c-0.02,-2.61 -0.65,-4.65 -1.89,-6.11 -1.24,-1.45 -2.97,-2.18 -5.19,-2.18 -2.13,0 -3.95,0.76 -5.44,2.29 -1.49,1.53 -2.41,3.53 -2.76,6l15.27 0zm47.73 16.84l-4.64 0 0 -39.59 4.64 0 0 39.59zm33.28 0l-4.54 0 0 -16.13c0,-6 -2.19,-9 -6.57,-9 -2.26,0 -4.14,0.85 -5.62,2.55 -1.49,1.71 -2.22,3.86 -2.22,6.45l0 16.13 -4.54 0 0 -28.28 4.54 0 0 4.69 0.11 0c2.13,-3.57 5.22,-5.35 9.27,-5.35 3.09,0 5.46,1 7.1,3 1.64,1.99 2.46,4.88 2.46,8.65l0 17.29zm32.01 0l-4.54 0 0 -16.13c0,-6 -2.19,-9 -6.57,-9 -2.26,0 -4.14,0.85 -5.62,2.55 -1.49,1.71 -2.22,3.86 -2.22,6.45l0 16.13 -4.54 0 0 -28.28 4.54 0 0 4.69 0.11 0c2.13,-3.57 5.22,-5.35 9.27,-5.35 3.09,0 5.46,1 7.1,3 1.64,1.99 2.46,4.88 2.46,8.65l0 17.29zm20.35 0.66c-4.18,0 -7.51,-1.32 -10.01,-3.96 -2.49,-2.64 -3.74,-6.15 -3.74,-10.51 0,-4.75 1.3,-8.46 3.89,-11.13 2.6,-2.67 6.11,-4 10.53,-4 4.21,0 7.5,1.29 9.87,3.89 2.37,2.59 3.54,6.19 3.54,10.79 0,4.52 -1.27,8.13 -3.81,10.84 -2.56,2.72 -5.98,4.07 -10.26,4.07zm0.33 -25.79c-2.9,0 -5.2,0.99 -6.9,2.97 -1.7,1.98 -2.54,4.7 -2.54,8.19 0,3.35 0.85,5.98 2.57,7.92 1.72,1.93 4.01,2.9 6.87,2.9 2.93,0 5.19,-0.95 6.76,-2.85 1.57,-1.89 2.35,-4.59 2.35,-8.09 0,-3.53 -0.78,-6.26 -2.35,-8.17 -1.57,-1.93 -3.83,-2.87 -6.76,-2.87zm43.22 -3.15l-11.27 28.28 -4.44 0 -10.72 -28.28 4.97 0 7.18 20.55c0.54,1.51 0.87,2.82 1,3.95l0.1 0c0.19,-1.42 0.48,-2.7 0.89,-3.85l7.51 -20.65 4.78 0zm24.08 28.28l-4.54 0 0 -4.42 -0.1 0c-1.97,3.39 -4.87,5.08 -8.7,5.08 -2.82,0 -5.02,-0.75 -6.61,-2.24 -1.59,-1.49 -2.39,-3.47 -2.39,-5.94 0,-5.28 3.11,-8.36 9.33,-9.22l8.47 -1.19c0,-4.81 -1.94,-7.21 -5.82,-7.21 -3.4,0 -6.48,1.16 -9.22,3.48l0 -4.64c2.78,-1.77 5.98,-2.65 9.61,-2.65 6.65,0 9.97,3.52 9.97,10.55l0 18.39zm-4.54 -14.31l-6.81 0.94c-2.1,0.3 -3.69,0.81 -4.75,1.57 -1.07,0.74 -1.6,2.06 -1.6,3.96 0,1.38 0.49,2.51 1.48,3.39 0.98,0.87 2.29,1.31 3.93,1.31 2.24,0 4.1,-0.79 5.56,-2.35 1.47,-1.57 2.2,-3.57 2.2,-5.98l0 -2.82zm26.19 14.04c-1.07,0.58 -2.48,0.87 -4.22,0.87 -4.96,0 -7.43,-2.76 -7.43,-8.28l0 -16.73 -4.86 0 0 -3.87 4.86 0 0 -6.9 4.52 -1.47 0 8.37 7.13 0 0 3.87 -7.13 0 0 15.94c0,1.89 0.32,3.24 0.97,4.05 0.64,0.81 1.7,1.22 3.2,1.22 1.14,0 2.12,-0.31 2.95,-0.94l0 3.87zm8.06 -35.19c-0.81,0 -1.5,-0.28 -2.07,-0.83 -0.57,-0.55 -0.85,-1.24 -0.85,-2.09 0,-0.85 0.28,-1.56 0.85,-2.11 0.57,-0.56 1.26,-0.85 2.07,-0.85 0.83,0 1.54,0.28 2.11,0.85 0.58,0.56 0.88,1.26 0.88,2.11 0,0.81 -0.3,1.5 -0.88,2.06 -0.57,0.57 -1.28,0.86 -2.11,0.86zm2.21 27.56c0,2.59 1,3.89 3.01,3.89 0.81,0 1.54,-0.11 2.18,-0.3l0 4.09c-0.35,0.08 -0.81,0.18 -1.39,0.26 -0.57,0.08 -1.19,0.13 -1.83,0.13 -0.9,0 -1.75,-0.15 -2.54,-0.44 -0.79,-0.3 -1.48,-0.75 -2.06,-1.36 -0.58,-0.6 -1.05,-1.37 -1.39,-2.28 -0.34,-0.9 -0.51,-1.97 -0.51,-3.19l0 -21.18 4.53 0 0 20.38zm32.34 -20.38l-11.27 28.28 -4.44 0 -10.72 -28.28 4.97 0 7.18 20.55c0.54,1.51 0.87,2.82 1,3.95l0.1 0c0.19,-1.42 0.48,-2.7 0.89,-3.85l7.51 -20.65 4.78 0zm27.24 15.27l-19.96 0c0.07,3.15 0.93,5.58 2.54,7.3 1.62,1.71 3.85,2.56 6.69,2.56 3.19,0 6.11,-1.04 8.78,-3.15l0 4.25c-2.49,1.81 -5.78,2.7 -9.86,2.7 -4,0 -7.14,-1.28 -9.42,-3.85 -2.29,-2.57 -3.43,-6.19 -3.43,-10.84 0,-4.4 1.25,-7.98 3.74,-10.76 2.5,-2.77 5.6,-4.16 9.3,-4.16 3.7,0 6.56,1.2 8.59,3.59 2.02,2.38 3.03,5.71 3.03,9.96l0 2.37zm-4.63 -3.83c-0.02,-2.61 -0.65,-4.65 -1.89,-6.11 -1.24,-1.45 -2.97,-2.18 -5.19,-2.18 -2.13,0 -3.95,0.76 -5.44,2.29 -1.49,1.53 -2.41,3.53 -2.76,6l15.27 0zm72.06 0.83c0,11.11 -5.02,16.67 -15.05,16.67 -9.61,0 -14.41,-5.35 -14.41,-16.04l0 -24.21 4.64 0 0 23.91c0,8.12 3.43,12.18 10.28,12.18 6.61,0 9.91,-3.92 9.91,-11.76l0 -24.33 4.64 0 0 23.58zm32.75 16.01l-4.54 0 0 -16.13c0,-6 -2.19,-9 -6.57,-9 -2.26,0 -4.14,0.85 -5.62,2.55 -1.49,1.71 -2.22,3.86 -2.22,6.45l0 16.13 -4.54 0 0 -28.28 4.54 0 0 4.69 0.11 0c2.13,-3.57 5.22,-5.35 9.27,-5.35 3.09,0 5.46,1 7.1,3 1.64,1.99 2.46,4.88 2.46,8.65l0 17.29zm10.55 -35.46c-0.81,0 -1.5,-0.28 -2.07,-0.83 -0.57,-0.55 -0.85,-1.24 -0.85,-2.09 0,-0.85 0.28,-1.56 0.85,-2.11 0.57,-0.56 1.26,-0.85 2.07,-0.85 0.83,0 1.54,0.28 2.11,0.85 0.58,0.56 0.88,1.26 0.88,2.11 0,0.81 -0.3,1.5 -0.88,2.06 -0.57,0.57 -1.28,0.86 -2.11,0.86zm2.21 27.56c0,2.59 1,3.89 3.01,3.89 0.81,0 1.54,-0.11 2.18,-0.3l0 4.09c-0.35,0.08 -0.81,0.18 -1.39,0.26 -0.57,0.08 -1.19,0.13 -1.83,0.13 -0.9,0 -1.75,-0.15 -2.54,-0.44 -0.79,-0.3 -1.48,-0.75 -2.06,-1.36 -0.58,-0.6 -1.05,-1.37 -1.39,-2.28 -0.34,-0.9 -0.51,-1.97 -0.51,-3.19l0 -21.18 4.53 0 0 20.38zm24.08 -29.99c-0.89,-0.49 -1.89,-0.74 -3.02,-0.74 -3.16,0 -4.74,2 -4.74,6l0 4.36 6.63 0 0 3.87 -6.63 0 0 24.41 -4.51 0 0 -24.41 -4.83 0 0 -3.87 4.83 0 0 -4.58c0,-2.97 0.86,-5.31 2.56,-7.03 1.72,-1.73 3.86,-2.58 6.41,-2.58 1.39,0 2.48,0.17 3.29,0.5l0 4.08zm6.13 2.43c-0.81,0 -1.5,-0.28 -2.07,-0.83 -0.56,-0.55 -0.85,-1.24 -0.85,-2.09 0,-0.85 0.28,-1.56 0.85,-2.11 0.57,-0.56 1.26,-0.85 2.07,-0.85 0.83,0 1.54,0.28 2.11,0.85 0.59,0.56 0.88,1.26 0.88,2.11 0,0.81 -0.29,1.5 -0.88,2.06 -0.57,0.57 -1.28,0.86 -2.11,0.86zm2.21 27.56c0,2.59 1,3.89 3.01,3.89 0.81,0 1.54,-0.11 2.18,-0.3l0 4.09c-0.35,0.08 -0.81,0.18 -1.39,0.26 -0.57,0.08 -1.19,0.13 -1.83,0.13 -0.9,0 -1.75,-0.15 -2.54,-0.44 -0.79,-0.3 -1.48,-0.75 -2.06,-1.36 -0.58,-0.6 -1.05,-1.37 -1.39,-2.28 -0.34,-0.9 -0.51,-1.97 -0.51,-3.19l0 -21.18 4.53 0 0 20.38zm32.82 -5.11l-19.96 0c0.07,3.15 0.93,5.58 2.54,7.3 1.62,1.71 3.85,2.56 6.69,2.56 3.19,0 6.11,-1.04 8.78,-3.15l0 4.25c-2.49,1.81 -5.78,2.7 -9.86,2.7 -4,0 -7.14,-1.28 -9.42,-3.85 -2.29,-2.57 -3.43,-6.19 -3.43,-10.84 0,-4.4 1.25,-7.98 3.74,-10.76 2.5,-2.77 5.6,-4.16 9.3,-4.16 3.7,0 6.56,1.2 8.59,3.59 2.02,2.38 3.03,5.71 3.03,9.96l0 2.37zm-4.63 -3.83c-0.02,-2.61 -0.65,-4.65 -1.89,-6.11 -1.24,-1.45 -2.97,-2.18 -5.19,-2.18 -2.13,0 -3.95,0.76 -5.44,2.29 -1.49,1.53 -2.41,3.53 -2.76,6l15.27 0zm35.63 16.84l-4.54 0 0 -4.81 -0.1 0c-2.1,3.65 -5.35,5.47 -9.73,5.47 -3.54,0 -6.39,-1.26 -8.51,-3.8 -2.13,-2.53 -3.19,-5.98 -3.19,-10.34 0,-4.68 1.18,-8.42 3.53,-11.24 2.36,-2.82 5.5,-4.22 9.42,-4.22 3.88,0 6.71,1.53 8.48,4.58l0.1 0 0 -17.5 4.54 0 0 41.86zm-4.54 -12.78l0 -4.18c0,-2.28 -0.76,-4.21 -2.26,-5.8 -1.51,-1.58 -3.42,-2.37 -5.74,-2.37 -2.76,0 -4.94,1.01 -6.52,3.03 -1.58,2.03 -2.37,4.83 -2.37,8.4 0,3.26 0.76,5.82 2.28,7.72 1.52,1.89 3.56,2.83 6.12,2.83 2.52,0 4.57,-0.91 6.15,-2.73 1.57,-1.82 2.35,-4.13 2.35,-6.9z"/>
   <path class="fil1" d="M4439.5 5741.68c2.88,0 5.21,2.33 5.21,5.2 0,2.87 -2.33,5.2 -5.21,5.2 -2.87,0 -5.2,-2.33 -5.2,-5.2 0,-2.87 2.33,-5.2 5.2,-5.2z"/>
   <path class="fil1" d="M4728.71 5741.68c2.88,0 5.21,2.33 5.21,5.2 0,2.87 -2.33,5.2 -5.21,5.2 -2.88,0 -5.21,-2.33 -5.21,-5.2 0,-2.87 2.33,-5.2 5.21,-5.2z"/>
   <path class="fil1" d="M4439.5 5741.68c2.88,0 5.21,2.33 5.21,5.2 0,2.87 -2.33,5.2 -5.21,5.2 -2.87,0 -5.2,-2.33 -5.2,-5.2 0,-2.87 2.33,-5.2 5.2,-5.2z"/>
   <path class="fil1" d="M4728.71 5741.68c2.88,0 5.21,2.33 5.21,5.2 0,2.87 -2.33,5.2 -5.21,5.2 -2.88,0 -5.21,-2.33 -5.21,-5.2 0,-2.87 2.33,-5.2 5.21,-5.2z"/>
  </g>
 </g>
</svg>
