<svg width="1139.17088" height="654.54324" xmlns="http://www.w3.org/2000/svg">
 <title>progressive_app</title>

 <g>
  <title>background</title>
  <rect fill="none" id="canvas_background" height="602" width="802" y="-1" x="-1"/>
 </g>
 <g>
  <title>Layer 1</title>
  <circle id="svg_1" fill="#f2f2f2" r="59.24334" cy="522.76476" cx="246.82682"/>
  <circle id="svg_2" fill="#6c63ff" r="59.24334" cy="514.095" cx="256.45989"/>
  <rect id="svg_3" fill="#3f3d56" height="2" width="732.99951" y="448.54324" x="304.17137"/>
  <path id="svg_4" fill="#3f3d56" d="m683.79279,19.65217l-260.1696,0l0,-5.36232l-117.971,0l0,5.36232l-261.24208,0a17.5985,17.5985 0 0 0 -17.59852,17.59851l0,356.25219a17.59856,17.59856 0 0 0 17.59852,17.59858l639.38268,0a17.59856,17.59856 0 0 0 17.59852,-17.59858l0,-356.25219a17.5985,17.5985 0 0 0 -17.59852,-17.59851z"/>
  <rect id="svg_5" fill="#6c63ff" height="353.91304" width="627.3913" y="50.75362" x="50.4058"/>
  <circle id="svg_6" fill="#6c63ff" r="6.43478" cy="34.66667" cx="363.56522"/>
  <polygon id="svg_7" opacity="0.1" points="498.3739929199219,404.6669921875 50.40599822998047,404.6669921875 50.40599822998047,50.75400161743164 498.3739929199219,404.6669921875 "/>
  <circle id="svg_8" fill="#f2f2f2" r="60.3068" cy="317.87641" cx="148.57375"/>
  <rect id="svg_9" fill="#3f3d56" height="12.24586" width="58.6052" y="241.62175" x="509.95272"/>
  <rect id="svg_10" fill="#3f3d56" height="5.24823" width="200.30733" y="146.27896" x="439.10165"/>
  <rect id="svg_11" fill="#3f3d56" height="5.24823" width="200.30733" y="162.89834" x="439.10165"/>
  <rect id="svg_12" fill="#3f3d56" height="5.24823" width="200.30733" y="179.51773" x="439.10165"/>
  <rect id="svg_13" fill="#3f3d56" height="5.24823" width="200.30733" y="196.13711" x="439.10165"/>
  <rect id="svg_14" fill="#3f3d56" height="5.24823" width="200.30733" y="212.7565" x="439.10165"/>
  <rect id="svg_15" fill="#f2f2f2" height="24.49173" width="24.49173" y="57.9338" x="614.91726"/>
  <path id="svg_16" fill="#3f3d56" d="m650.78014,93.79669l-29.74,0l0,-29.74l29.74,0l0,29.74zm-28.44691,-1.293l27.15387,0l0,-27.15391l-27.15387,0l0,27.15391z"/>
  <path id="svg_17" fill="#3f3d56" d="m719.00709,398.23186l-61.22931,0l0,-4.41153a0.87468,0.87468 0 0 0 -0.87471,-0.87471l-20.9929,0a0.87468,0.87468 0 0 0 -0.87471,0.87471l0,4.41153l-13.12057,0l0,-4.41153a0.87467,0.87467 0 0 0 -0.8747,-0.87471l-20.99291,0a0.87468,0.87468 0 0 0 -0.8747,0.87471l0,4.41153l-13.12057,0l0,-4.41153a0.87468,0.87468 0 0 0 -0.8747,-0.87471l-20.99287,0a0.87468,0.87468 0 0 0 -0.87471,0.87471l0,4.41153l-13.1206,0l0,-4.41153a0.87468,0.87468 0 0 0 -0.87471,-0.87471l-20.99291,0a0.87468,0.87468 0 0 0 -0.8747,0.87471l0,4.41153l-13.12057,0l0,-4.41153a0.87468,0.87468 0 0 0 -0.8747,-0.87471l-20.99291,0a0.87467,0.87467 0 0 0 -0.8747,0.87471l0,4.41153l-13.12057,0l0,-4.41153a0.87468,0.87468 0 0 0 -0.87471,-0.87471l-20.9929,0a0.87468,0.87468 0 0 0 -0.87471,0.87471l0,4.41153l-13.1206,0l0,-4.41153a0.87468,0.87468 0 0 0 -0.8747,-0.87471l-164.44442,0a0.87468,0.87468 0 0 0 -0.8747,0.87471l0,4.41153l-13.12057,0l0,-4.41153a0.87468,0.87468 0 0 0 -0.8747,-0.87471l-20.99291,0a0.87467,0.87467 0 0 0 -0.8747,0.87471l0,4.41153l-13.12057,0l0,-4.41153a0.87468,0.87468 0 0 0 -0.87471,-0.87471l-20.9929,0a0.87468,0.87468 0 0 0 -0.87471,0.87471l0,4.41153l-13.12057,0l0,-4.41153a0.87467,0.87467 0 0 0 -0.8747,-0.87471l-20.99291,0a0.87468,0.87468 0 0 0 -0.8747,0.87471l0,4.41153l-13.12053,0l0,-4.41153a0.87468,0.87468 0 0 0 -0.8747,-0.87471l-20.99295,0a0.87468,0.87468 0 0 0 -0.87471,0.87471l0,4.41153l-13.12056,0l0,-4.41153a0.87468,0.87468 0 0 0 -0.87471,-0.87471l-20.99291,0a0.87468,0.87468 0 0 0 -0.8747,0.87471l0,4.41153l-13.12057,0l0,-4.41153a0.87468,0.87468 0 0 0 -0.8747,-0.87471l-20.99291,0a0.87467,0.87467 0 0 0 -0.8747,0.87471l0,4.41153l-40.23641,0a20.99293,20.99293 0 0 0 -20.99291,20.99291l0,9.4925a20.99291,20.99291 0 0 0 20.99291,20.99285l698.01418,0a20.9929,20.9929 0 0 0 20.99291,-20.99285l0,-9.4925a20.99292,20.99292 0 0 0 -20.99291,-20.99291z"/>
  <path id="svg_18" fill="#3f3d56" d="m163.17137,355.54324a76,76 0 1 1 76,-76a76.08614,76.08614 0 0 1 -76,76zm0,-150a74,74 0 1 0 74,74a74.08385,74.08385 0 0 0 -74,-74z"/>
  <rect id="svg_19" fill="#3f3d56" height="2" width="254.99951" y="33.54324" x="586.17137"/>
  <rect id="svg_20" fill="#3f3d56" height="2" width="732.99951" y="561.54324" x="406.17137"/>
  <rect id="svg_21" fill="#3f3d56" height="2" width="254.99951" y="653.54324" x="192.67161"/>
  <rect id="svg_22" fill="#6c63ff" height="28" width="28" y="551" x="471"/>
  <path id="svg_23" fill="#3f3d56" d="m516,563l-34,0l0,-34l34,0l0,34zm-32.52174,-1.47826l31.04348,0l0,-31.04348l-31.04348,0l0,31.04348z"/>
  <rect id="svg_24" fill="#6c63ff" height="28" width="28" y="23" x="796"/>
  <path id="svg_25" fill="#3f3d56" d="m841,35l-34,0l0,-34l34,0l0,34zm-32.52174,-1.47826l31.04348,0l0,-31.04348l-31.04348,0l0,31.04348z"/>
  <rect id="svg_26" fill="#6c63ff" height="28" width="28" y="551" x="1078"/>
  <path id="svg_27" fill="#3f3d56" d="m1123,563l-34,0l0,-34l34,0l0,34zm-32.52174,-1.47826l31.04348,0l0,-31.04348l-31.04348,0l0,31.04348z"/>
  <path id="svg_28" fill="#3f3d56" d="m1057.17137,232.95822l-2.37862,0l0,-65.1616a37.71374,37.71374 0 0 0 -37.71385,-37.71377l-138.05346,0a37.71373,37.71373 0 0 0 -37.71387,37.71377l0,357.48139a37.71374,37.71374 0 0 0 37.71387,37.71378l138.05348,0a37.71374,37.71374 0 0 0 37.71385,-37.71378l0,-245.9367l2.37862,0l-0.00002,-46.38309z"/>
  <path id="svg_29" fill="#6c63ff" d="m1046.76144,170.01321l0,356.96a28.16523,28.16523 0 0 1 -28.16016,28.17l-138.71984,0a28.16511,28.16511 0 0 1 -28.16,-28.17l0,-356.96a28.163,28.163 0 0 1 28.16,-28.16l16.83,0a13.3792,13.3792 0 0 0 12.39,18.43l79.09,0a13.37908,13.37908 0 0 0 12.38995,-18.43l18.02,0a28.16308,28.16308 0 0 1 28.16005,28.16z"/>
  <rect id="svg_30" fill="#3f3d56" height="12.24586" width="41.32357" y="377.21769" x="928.57968"/>
  <rect id="svg_31" fill="#3f3d56" height="5.24823" width="141.24028" y="281.8749" x="878.62133"/>
  <rect id="svg_32" fill="#3f3d56" height="5.24823" width="141.24028" y="298.49429" x="878.62133"/>
  <rect id="svg_33" fill="#3f3d56" height="5.24823" width="141.24028" y="315.11367" x="878.62133"/>
  <rect id="svg_34" fill="#3f3d56" height="5.24823" width="141.24028" y="331.73306" x="878.62133"/>
  <rect id="svg_35" fill="#3f3d56" height="5.24823" width="141.24028" y="348.35244" x="878.62133"/>
  <rect id="svg_36" fill="#f2f2f2" height="24.49173" width="24.49173" y="212.17873" x="929.68352"/>
  <path id="svg_37" fill="#3f3d56" d="m939.0593,218.30325l0,29.74l29.74,0l0,-29.74l-29.74,0zm28.45,28.45l-27.16,0l0,-27.16l27.16,0l0,27.16z"/>
  <path id="svg_38" opacity="0.1" d="m1046.76144,488.85324l0,38.12a28.16523,28.16523 0 0 1 -28.16016,28.17l-138.71984,0a28.16511,28.16511 0 0 1 -28.16,-28.17l0,-192.21l116.87,92.33l2,1.58l21.74,17.17l2.03,1.61l52.4,41.4z"/>
  <circle id="svg_39" fill="#f2f2f2" r="43.86783" cy="499.70691" cx="937.24147"/>
  <path id="svg_40" fill="#3f3d56" d="m320.17137,655.54324a87,87 0 1 1 87,-87a87.09858,87.09858 0 0 1 -87,87zm0,-172a85,85 0 1 0 85,85a85.09629,85.09629 0 0 0 -85,-85z"/>
  <path id="svg_41" fill="#3f3d56" d="m950.17137,533.54324a55,55 0 1 1 55,-55a55.06223,55.06223 0 0 1 -55,55zm0,-108a53,53 0 1 0 53,53a53.05963,53.05963 0 0 0 -53,-53z"/>
  <text style="cursor: move;" stroke="#000" transform="matrix(1.0530115365982056,0,0,1,-9.754122734069824,0) " xml:space="preserve" text-anchor="start" font-family="Helvetica, Arial, sans-serif" font-size="24" id="svg_42" y="129" x="205.84212" stroke-width="0" fill="#ffbd33">InterCraft.co</text>
 </g>
</svg>